# xmcd CD database file
#
# Track frame offsets:
#	150
#	19713
#	38794
#
# Disc length: 776 seconds
#
# Revision: 1
# Processed by: cddbd v1.5.2PL0 Copyright (c) Steve Scherf et al.
# Submitted via: jetAudio 7
#
DISCID=19030603
DTITLE=IN DEEP feat. MAX WHO - I Can't Tell You
DYEAR=2002
DGENRE=Punk Rock
TTITLE0=I Can't Tell You (The Max MIx)
TTITLE1=I Can't Tell You (The House Mix)
TTITLE2=I Can't Tell You Groove
EXTD=YEAR: 2002
EXTT0=
EXTT1=
EXTT2=
PLAYORDER=
